<mxfile host="app.diagrams.net" agent="Mozilla/5.0 (Windows NT 10.0; Win64; x64) AppleWebKit/537.36 (KHTML, like Gecko) Chrome/130.0.0.0 Safari/537.36" version="24.8.3">
  <diagram name="Strona-1" id="UyTlPLq0de9LadciaNKV">
    <mxGraphModel dx="2336" dy="1946" grid="1" gridSize="10" guides="1" tooltips="1" connect="1" arrows="1" fold="1" page="1" pageScale="1" pageWidth="827" pageHeight="1169" math="0" shadow="0">
      <root>
        <mxCell id="0" />
        <mxCell id="1" parent="0" />
        <mxCell id="_aqN0OyUgXVAsGbL4pk2-28" value="SkillHub" style="rounded=1;whiteSpace=wrap;html=1;fillColor=none;dashed=1;labelPosition=center;verticalLabelPosition=top;align=center;verticalAlign=bottom;spacing=-20;movable=0;resizable=0;rotatable=0;deletable=0;editable=0;locked=1;connectable=0;" vertex="1" parent="1">
          <mxGeometry x="-290" y="-200" width="1160" height="1900" as="geometry" />
        </mxCell>
        <mxCell id="_aqN0OyUgXVAsGbL4pk2-1" value="SkillHubCore" style="rounded=1;whiteSpace=wrap;html=1;dashed=1;fillColor=none;labelPosition=center;verticalLabelPosition=top;align=center;verticalAlign=bottom;spacing=-25;" vertex="1" parent="1">
          <mxGeometry x="40" y="-160" width="600" height="750" as="geometry" />
        </mxCell>
        <mxCell id="_aqN0OyUgXVAsGbL4pk2-2" value="SkillHubCoreServiceCQRS" style="rounded=1;whiteSpace=wrap;html=1;fillColor=none;labelPosition=center;verticalLabelPosition=top;align=center;verticalAlign=bottom;spacing=-20;dashed=1;" vertex="1" parent="1">
          <mxGeometry x="230" y="-90" width="380" height="630" as="geometry" />
        </mxCell>
        <mxCell id="_aqN0OyUgXVAsGbL4pk2-3" value="QuizModule" style="rounded=1;whiteSpace=wrap;html=1;" vertex="1" parent="1">
          <mxGeometry x="275" y="140" width="130" height="70" as="geometry" />
        </mxCell>
        <mxCell id="_aqN0OyUgXVAsGbL4pk2-4" value="LessonModule" style="rounded=1;whiteSpace=wrap;html=1;" vertex="1" parent="1">
          <mxGeometry x="275" y="-45" width="130" height="80" as="geometry" />
        </mxCell>
        <mxCell id="_aqN0OyUgXVAsGbL4pk2-5" value="CourseModule" style="rounded=1;whiteSpace=wrap;html=1;" vertex="1" parent="1">
          <mxGeometry x="275" y="50" width="130" height="75" as="geometry" />
        </mxCell>
        <mxCell id="_aqN0OyUgXVAsGbL4pk2-6" value="UserModule" style="rounded=1;whiteSpace=wrap;html=1;" vertex="1" parent="1">
          <mxGeometry x="275" y="230" width="130" height="70" as="geometry" />
        </mxCell>
        <mxCell id="_aqN0OyUgXVAsGbL4pk2-8" value="LoggingService" style="rounded=1;whiteSpace=wrap;html=1;fillColor=none;labelPosition=center;verticalLabelPosition=top;align=center;verticalAlign=bottom;spacing=-20;dashed=1;" vertex="1" parent="1">
          <mxGeometry x="230" y="1480" width="380" height="160" as="geometry" />
        </mxCell>
        <mxCell id="_aqN0OyUgXVAsGbL4pk2-10" value="NotificationService" style="rounded=1;whiteSpace=wrap;html=1;fillColor=none;labelPosition=center;verticalLabelPosition=top;align=center;verticalAlign=bottom;spacing=-20;dashed=1;" vertex="1" parent="1">
          <mxGeometry x="230" y="1140" width="380" height="140" as="geometry" />
        </mxCell>
        <mxCell id="_aqN0OyUgXVAsGbL4pk2-11" value="IdentityService" style="rounded=1;whiteSpace=wrap;html=1;fillColor=none;labelPosition=center;verticalLabelPosition=top;align=center;verticalAlign=bottom;spacing=-20;dashed=1;" vertex="1" parent="1">
          <mxGeometry x="230" y="1300" width="380" height="140" as="geometry" />
        </mxCell>
        <mxCell id="_aqN0OyUgXVAsGbL4pk2-12" value="GroupServiceCQRS" style="rounded=1;whiteSpace=wrap;html=1;gradientColor=none;fillColor=none;labelPosition=center;verticalLabelPosition=top;align=center;verticalAlign=bottom;spacing=-20;dashed=1;" vertex="1" parent="1">
          <mxGeometry x="230" y="610" width="380" height="300" as="geometry" />
        </mxCell>
        <mxCell id="_aqN0OyUgXVAsGbL4pk2-14" value="SQL Server" style="shape=cylinder3;whiteSpace=wrap;html=1;boundedLbl=1;backgroundOutline=1;size=15;" vertex="1" parent="1">
          <mxGeometry x="460" y="310" width="70" height="80" as="geometry" />
        </mxCell>
        <mxCell id="_aqN0OyUgXVAsGbL4pk2-15" value="MongoDb" style="shape=cylinder3;whiteSpace=wrap;html=1;boundedLbl=1;backgroundOutline=1;size=15;" vertex="1" parent="1">
          <mxGeometry x="460" y="35" width="70" height="90" as="geometry" />
        </mxCell>
        <mxCell id="_aqN0OyUgXVAsGbL4pk2-16" value="SQL Server" style="shape=cylinder3;whiteSpace=wrap;html=1;boundedLbl=1;backgroundOutline=1;size=15;" vertex="1" parent="1">
          <mxGeometry x="463" y="1525" width="70" height="80" as="geometry" />
        </mxCell>
        <mxCell id="_aqN0OyUgXVAsGbL4pk2-17" value="SQL Server" style="shape=cylinder3;whiteSpace=wrap;html=1;boundedLbl=1;backgroundOutline=1;size=15;" vertex="1" parent="1">
          <mxGeometry x="460" y="1169" width="70" height="80" as="geometry" />
        </mxCell>
        <mxCell id="_aqN0OyUgXVAsGbL4pk2-18" value="SQL Server" style="shape=cylinder3;whiteSpace=wrap;html=1;boundedLbl=1;backgroundOutline=1;size=15;" vertex="1" parent="1">
          <mxGeometry x="460" y="1330" width="70" height="80" as="geometry" />
        </mxCell>
        <mxCell id="_aqN0OyUgXVAsGbL4pk2-19" value="SQL Server" style="shape=cylinder3;whiteSpace=wrap;html=1;boundedLbl=1;backgroundOutline=1;size=15;" vertex="1" parent="1">
          <mxGeometry x="463" y="730" width="70" height="80" as="geometry" />
        </mxCell>
        <mxCell id="_aqN0OyUgXVAsGbL4pk2-20" value="LoggingServiceCQRS" style="rounded=1;whiteSpace=wrap;html=1;" vertex="1" parent="1">
          <mxGeometry x="269.5" y="1530" width="150" height="70" as="geometry" />
        </mxCell>
        <mxCell id="_aqN0OyUgXVAsGbL4pk2-21" value="NotificationServiceCQRS" style="rounded=1;whiteSpace=wrap;html=1;" vertex="1" parent="1">
          <mxGeometry x="270" y="1179" width="145" height="60" as="geometry" />
        </mxCell>
        <mxCell id="_aqN0OyUgXVAsGbL4pk2-22" value="IdentityServiceCQRS" style="rounded=1;whiteSpace=wrap;html=1;" vertex="1" parent="1">
          <mxGeometry x="270.5" y="1340" width="150" height="60" as="geometry" />
        </mxCell>
        <mxCell id="_aqN0OyUgXVAsGbL4pk2-23" value="GroupModule" style="rounded=1;whiteSpace=wrap;html=1;" vertex="1" parent="1">
          <mxGeometry x="273" y="660" width="150" height="60" as="geometry" />
        </mxCell>
        <mxCell id="_aqN0OyUgXVAsGbL4pk2-24" value="Message Bus" style="rounded=1;whiteSpace=wrap;html=1;dashed=1;" vertex="1" parent="1">
          <mxGeometry x="660" y="-160" width="120" height="1810" as="geometry" />
        </mxCell>
        <mxCell id="_aqN0OyUgXVAsGbL4pk2-25" value="API Gateway" style="rounded=0;whiteSpace=wrap;html=1;" vertex="1" parent="1">
          <mxGeometry x="-120" y="510" width="120" height="60" as="geometry" />
        </mxCell>
        <mxCell id="_aqN0OyUgXVAsGbL4pk2-27" value="Load Balancer" style="rounded=0;whiteSpace=wrap;html=1;" vertex="1" parent="1">
          <mxGeometry x="-270" y="510" width="120" height="60" as="geometry" />
        </mxCell>
        <mxCell id="_aqN0OyUgXVAsGbL4pk2-30" value="gRPC" style="rounded=0;whiteSpace=wrap;html=1;" vertex="1" parent="1">
          <mxGeometry x="500" y="1420" width="80" height="40" as="geometry" />
        </mxCell>
        <mxCell id="_aqN0OyUgXVAsGbL4pk2-31" value="Infrastructure" style="rounded=1;whiteSpace=wrap;html=1;" vertex="1" parent="1">
          <mxGeometry x="275" y="420" width="135" height="70" as="geometry" />
        </mxCell>
        <mxCell id="_aqN0OyUgXVAsGbL4pk2-33" value="MessagingModule" style="rounded=1;whiteSpace=wrap;html=1;" vertex="1" parent="1">
          <mxGeometry x="275" y="330" width="135" height="70" as="geometry" />
        </mxCell>
        <mxCell id="_aqN0OyUgXVAsGbL4pk2-35" value="PlanningModule" style="rounded=1;whiteSpace=wrap;html=1;" vertex="1" parent="1">
          <mxGeometry x="272" y="740" width="147" height="60" as="geometry" />
        </mxCell>
        <mxCell id="_aqN0OyUgXVAsGbL4pk2-36" value="ExamsModule" style="rounded=1;whiteSpace=wrap;html=1;" vertex="1" parent="1">
          <mxGeometry x="273" y="820" width="150" height="60" as="geometry" />
        </mxCell>
        <mxCell id="_aqN0OyUgXVAsGbL4pk2-37" value="AIService" style="rounded=1;whiteSpace=wrap;html=1;fillColor=none;labelPosition=center;verticalLabelPosition=top;align=center;verticalAlign=bottom;spacing=-20;dashed=1;" vertex="1" parent="1">
          <mxGeometry x="230" y="950" width="380" height="140" as="geometry" />
        </mxCell>
        <mxCell id="_aqN0OyUgXVAsGbL4pk2-38" value="AIServiceCQRS" style="rounded=1;whiteSpace=wrap;html=1;" vertex="1" parent="1">
          <mxGeometry x="272" y="990" width="145" height="60" as="geometry" />
        </mxCell>
        <mxCell id="_aqN0OyUgXVAsGbL4pk2-39" value="SQL Service" style="shape=cylinder3;whiteSpace=wrap;html=1;boundedLbl=1;backgroundOutline=1;size=15;" vertex="1" parent="1">
          <mxGeometry x="460" y="980" width="70" height="80" as="geometry" />
        </mxCell>
      </root>
    </mxGraphModel>
  </diagram>
</mxfile>
